<svg width="210" height="36" viewBox="0 0 210 36" fill="none" xmlns="http://www.w3.org/2000/svg">
<path fill-rule="evenodd" clip-rule="evenodd" d="M27.5894 26.4659C26.305 27.8632 25.3406 28.8276 24.64 29.4155C21.7119 31.8728 18.2507 33.0283 14.1653 32.9122C13.0439 32.8804 12.7252 32.8405 11.8928 32.6281C10.3552 32.2357 9.57676 32.153 9.65587 32.3903C9.73737 32.6347 12.785 33.7336 14.3334 34.0769C16.3769 34.53 19.0233 34.6824 20.8198 34.4503C25.3187 33.8691 28.9648 31.7558 30.0728 29.0872C30.3429 28.4366 30.3615 27.6427 30.119 27.1128C29.7789 26.3697 29.0461 25.7756 28.4643 25.7713C28.2701 25.7698 28.1191 25.8898 27.5894 26.4659Z" fill="#EC3434"/>
<path fill-rule="evenodd" clip-rule="evenodd" d="M37.1773 17.4525V34.6834H40.7985H44.4198V17.4525V0.22168H40.7985H37.1773V17.4525ZM85.8057 17.4525V34.6834H89.4264H93.0472L93.0676 28.9162L93.0881 23.149L96.7853 28.9162L100.483 34.6834H104.764C107.606 34.6834 109.046 34.6563 109.046 34.6027C109.046 34.5583 107.137 31.8811 104.805 28.6535C102.473 25.4258 100.485 22.6719 100.388 22.5338L100.211 22.2827L104.381 16.8432L108.55 11.4038L104.281 11.3831C100.283 11.3636 100.006 11.3711 99.9089 11.5024C99.8519 11.5795 98.294 13.9875 96.4468 16.8535L93.0881 22.0644L93.0678 11.143L93.0477 0.22168H89.4267H85.8057V17.4525ZM52.7474 0.507083C51.6443 0.774102 50.4961 1.6838 50.1441 2.56953C49.9798 2.98316 49.9544 3.18022 49.9544 4.04192C49.9544 4.89765 49.9802 5.10148 50.1396 5.49974C50.5168 6.44278 51.6471 7.35621 52.7766 7.63079C53.4094 7.78464 54.7781 7.76347 55.3598 7.59084C56.758 7.17595 57.7149 6.23911 58.0337 4.97294C58.0876 4.75901 58.1141 4.2697 58.0959 3.82369C58.0686 3.15594 58.0288 2.97146 57.8113 2.50793C57.3403 1.50377 56.3438 0.743301 55.1739 0.495304C54.5089 0.354353 53.3553 0.360004 52.7474 0.507083ZM15.9272 0.988433C13.9493 1.22688 12.5502 1.53258 10.8733 2.0928C9.4818 2.55768 8.00815 3.17409 8.00815 3.29132C8.00815 3.33207 8.21364 3.37616 8.46474 3.38929C8.79806 3.40664 9.29222 3.32069 10.2953 3.07094L11.6692 2.72871L13.4997 2.73197C14.8559 2.73436 15.5674 2.77233 16.2455 2.87834C19.7551 3.42718 22.566 4.80501 25.26 7.29708C25.5251 7.54221 26.3116 8.36062 27.0079 9.11567C28.238 10.4494 28.283 10.4886 28.5896 10.4886C29.0283 10.4886 29.3867 10.3203 29.775 9.93201C32.2541 7.45291 28.6011 3.05009 22.8116 1.53926C21.1674 1.1102 20.2524 0.999576 18.1557 0.976416C17.0832 0.964557 16.0804 0.969969 15.9272 0.988433ZM13.4202 3.65241C11.1925 3.88624 9.12087 4.6413 7.17247 5.92951C5.92922 6.75158 4.2663 8.40805 3.44161 9.64605C1.63861 12.3525 0.778822 15.3572 0.911814 18.4872C1.0082 20.7578 1.47355 22.5544 2.4852 24.5621C3.22561 26.0315 3.90696 26.9645 5.14122 28.1987C6.3699 29.4273 7.31334 30.1168 8.72444 30.8171C10.4216 31.6593 11.8706 32.0621 13.75 32.2139C18.7693 32.6193 23.6688 30.0745 26.4251 25.6306C27.0247 24.6639 27.7887 23.0399 27.6903 22.9414C27.67 22.9211 27.5321 23.0747 27.3838 23.2826C26.9361 23.9103 25.6444 25.1378 24.6209 25.9082C22.5565 27.4623 20.3704 28.5126 18.6095 28.7965C18.2197 28.8593 17.6424 28.8799 17.0575 28.8518C12.4055 28.6287 8.37123 25.5217 6.94899 21.0667C6.54619 19.8049 6.42784 18.8612 6.48172 17.3418C6.50751 16.6147 6.58471 15.7693 6.65331 15.4628C7.13761 13.2993 8.08582 11.5135 9.5668 9.97594C11.2372 8.24163 13.141 7.24264 15.5651 6.82815C16.7024 6.63371 18.3873 6.61525 19.3686 6.78636C21.5815 7.17221 23.6227 8.37869 26.2538 10.8557C26.79 11.3605 27.2287 11.7522 27.2287 11.726C27.2287 11.6054 26.611 10.4651 26.2349 9.89166C23.4102 5.58418 18.3744 3.13238 13.4202 3.65241ZM73.2797 10.8891C67.5261 11.5438 63.4853 15.08 62.4147 20.3973C62.1852 21.5373 62.0621 23.183 62.1259 24.2573C62.2354 26.1005 62.5744 27.4707 63.2786 28.9164C64.7917 32.0234 67.6393 34.2057 71.113 34.9204C74.0305 35.5207 78.2229 35.1633 80.4612 34.1233L81.1896 33.7849V30.9019V28.0188L80.0953 28.5647C78.2527 29.484 76.7088 29.7955 74.9563 29.6016C73.3514 29.4241 72.2811 28.9406 71.2906 27.9459C70.4389 27.0906 69.962 26.21 69.6757 24.9644C69.4642 24.0442 69.4857 21.9684 69.7164 21.0372C70.2601 18.8418 71.8622 17.2163 74.0923 16.5968C74.6116 16.4526 74.9178 16.4272 76.1357 16.4272C77.3538 16.4272 77.6599 16.4526 78.1792 16.5968C79.0441 16.837 79.8994 17.208 80.5288 17.6157C80.8266 17.8086 81.097 17.9672 81.1299 17.9682C81.1628 17.9691 81.1896 16.6067 81.1896 14.9405V11.9112L80.6754 11.678C80.0492 11.3941 79.2499 11.1717 78.2448 11.0016C77.3543 10.8509 74.236 10.7803 73.2797 10.8891ZM119.233 10.926C117.009 11.1967 113.849 12.014 112.639 12.6312L112.309 12.7999V15.5042C112.309 16.9917 112.328 18.2086 112.352 18.2086C112.376 18.2086 112.694 18.0294 113.058 17.8103C114.432 16.9835 115.91 16.4045 117.53 16.0589C118.542 15.843 120.615 15.7579 121.447 15.8982C122.617 16.0956 123.566 16.773 123.979 17.7068C124.161 18.1191 124.399 19.3563 124.313 19.4427C124.292 19.4639 122.719 19.6981 120.819 19.9632C118.918 20.2282 117.034 20.5162 116.632 20.6033C113.112 21.3661 111.013 23.1168 110.256 25.9225C110.07 26.6132 110.051 26.8232 110.051 28.1572C110.051 29.4287 110.075 29.7164 110.227 30.2663C110.925 32.8025 112.816 34.5323 115.454 35.0506C116.401 35.2366 118.228 35.2342 119.105 35.046C121.146 34.6077 122.773 33.5131 123.874 31.8381L124.207 31.3312L124.229 33.0082L124.25 34.6851L127.651 34.6644L131.052 34.6436L131.051 26.9236L131.05 19.2035L130.865 18.1713C130.371 15.428 129.29 13.591 127.45 12.3713C125.515 11.088 122.401 10.5401 119.233 10.926ZM168.379 10.8891C164.494 11.3239 161.293 13.1288 159.446 15.9255C158.129 17.9192 157.513 20.2197 157.516 23.1273C157.521 26.7264 158.491 29.4504 160.533 31.6003C162.563 33.7372 165.184 34.8801 168.709 35.1662C172.402 35.466 176.01 34.5377 178.316 32.6952C181.498 30.1515 182.915 26.5493 182.653 21.6707C182.46 18.0794 180.933 15.0751 178.317 13.1407C176.985 12.1553 175.073 11.3659 173.228 11.0388C172.151 10.8478 169.483 10.7655 168.379 10.8891ZM200.851 10.8614C199.645 11.0165 198.403 11.4401 197.459 12.0191C196.653 12.513 195.432 13.7074 194.919 14.5042L194.563 15.0577L194.542 13.2109L194.52 11.364H190.901H187.281V23.0237V34.6834H190.902H194.523V27.6867C194.523 21.9958 194.544 20.5808 194.636 20.1059C195.072 17.8321 196.655 16.3781 198.693 16.3781C200.644 16.3781 201.787 17.328 202.337 19.4074C202.513 20.0751 202.515 20.1218 202.542 27.3812L202.569 34.6834H206.151H209.733L209.702 26.6251C209.679 20.7302 209.644 18.3852 209.571 17.8903C209.305 16.0881 208.654 14.3427 207.852 13.284C206.619 11.6561 204.557 10.7868 202.005 10.8192C201.501 10.8255 200.982 10.8446 200.851 10.8614ZM50.3889 23.0237V34.6834H53.9704H57.5519V23.0237V11.364H53.9704H50.3889V23.0237ZM135.469 14.07V16.776H140.602C143.426 16.776 145.736 16.7959 145.736 16.8203C145.736 16.8446 143.157 20.1843 140.006 24.2419L134.276 31.6193L134.275 33.1513L134.275 34.6834H144.701H155.127V32.0178V29.3521L149.597 29.3317L144.067 29.3112L149.557 22.1618L155.048 15.0124V13.1882V11.364H145.258H135.469V14.07ZM168.753 16.539C167.39 16.8961 166.343 17.7668 165.691 19.0854C165.065 20.3522 164.956 20.9489 164.958 23.1033C164.96 24.7207 164.98 25.0144 165.135 25.6252C165.724 27.9585 166.938 29.1893 169.006 29.547C171.916 30.0507 174.02 28.9016 174.85 26.3555C175.3 24.9766 175.444 22.341 175.156 20.7597C174.71 18.3145 173.526 16.9102 171.562 16.4978C170.772 16.3319 169.47 16.351 168.753 16.539ZM121.698 24.0183C120.205 24.2245 119.309 24.3877 118.882 24.5311C117.389 25.0321 116.686 25.9123 116.686 27.2799C116.686 27.9733 116.852 28.5033 117.223 28.9903C117.612 29.5009 118.105 29.8003 118.797 29.947C120.347 30.2753 121.865 29.8772 122.859 28.8825C123.942 27.7972 124.325 26.7008 124.326 24.6752L124.326 23.7002L124.108 23.708C123.987 23.7122 122.903 23.8518 121.698 24.0183Z" fill="#3C4394"/>
</svg>
